REM DIRINDEX 1\2\5,1\2\6,1\2\7,1\2\8,1\3\9,1\3\10,1\3\11,1\4\12,1\4\13,1\4\14,1\4\15,1\4\16
REM DIRNAME cjc034,folder01,folder02,folder03,folder04,folder05,folder06,folder07,folder08,folder09,folder10,folder11,folder12,folder13,folder14,folder15
TITLE ""
FILE "1200_sec04_1317_1323.mp3" MP3
  TRACK 01 AUDIO
    TITLE "0:"
    INDEX 01 00:00:00
  TRACK 02 AUDIO
    TITLE "12:cjc034_08991"
    INDEX 01 00:00:17
  TRACK 03 AUDIO
    TITLE "0:"
    INDEX 01 00:01:46
  TRACK 04 AUDIO
    TITLE "13:cjc034_08992"
    INDEX 01 00:02:04
  TRACK 05 AUDIO
    TITLE "0:"
    INDEX 01 00:03:14
  TRACK 06 AUDIO
    TITLE "14:cjc034_08993"
    INDEX 01 00:03:45
  TRACK 07 AUDIO
    TITLE "0:"
    INDEX 01 00:04:74
  TRACK 08 AUDIO
    TITLE "15:cjc034_08994"
    INDEX 01 00:05:30
  TRACK 09 AUDIO
    TITLE "0:"
    INDEX 01 00:09:55
  TRACK 10 AUDIO
    TITLE "12:cjc034_08995"
    INDEX 01 00:11:13
  TRACK 11 AUDIO
    TITLE "0:"
    INDEX 01 00:12:40
  TRACK 12 AUDIO
    TITLE "13:cjc034_08996"
    INDEX 01 00:12:71
  TRACK 13 AUDIO
    TITLE "0:"
    INDEX 01 00:14:13
  TRACK 14 AUDIO
    TITLE "14:cjc034_08997"
    INDEX 01 00:14:47
  TRACK 15 AUDIO
    TITLE "0:"
    INDEX 01 00:15:74
  TRACK 16 AUDIO
    TITLE "15:cjc034_08998"
    INDEX 01 00:16:30
  TRACK 17 AUDIO
    TITLE "0:"
    INDEX 01 00:22:46
  TRACK 18 AUDIO
    TITLE "12:cjc034_08999"
    INDEX 01 00:24:06
  TRACK 19 AUDIO
    TITLE "0:"
    INDEX 01 00:25:07
  TRACK 20 AUDIO
    TITLE "13:cjc034_09000"
    INDEX 01 00:25:41
  TRACK 21 AUDIO
    TITLE "0:"
    INDEX 01 00:28:47
  TRACK 22 AUDIO
    TITLE "14:cjc034_09001"
    INDEX 01 00:29:03
  TRACK 23 AUDIO
    TITLE "0:"
    INDEX 01 00:30:05
  TRACK 24 AUDIO
    TITLE "15:cjc034_09002"
    INDEX 01 00:30:40
  TRACK 25 AUDIO
    TITLE "0:"
    INDEX 01 00:33:34
  TRACK 26 AUDIO
    TITLE "12:cjc034_09003"
    INDEX 01 00:34:65
  TRACK 27 AUDIO
    TITLE "0:"
    INDEX 01 00:36:07
  TRACK 28 AUDIO
    TITLE "13:cjc034_09004"
    INDEX 01 00:36:40
  TRACK 29 AUDIO
    TITLE "0:"
    INDEX 01 00:38:73
  TRACK 30 AUDIO
    TITLE "14:cjc034_09005"
    INDEX 01 00:39:29
  TRACK 31 AUDIO
    TITLE "0:"
    INDEX 01 00:40:46
  TRACK 32 AUDIO
    TITLE "15:cjc034_09006"
    INDEX 01 00:41:04
  TRACK 33 AUDIO
    TITLE "0:"
    INDEX 01 00:46:19
  TRACK 34 AUDIO
    TITLE "12:cjc034_09007"
    INDEX 01 00:47:50
  TRACK 35 AUDIO
    TITLE "0:"
    INDEX 01 00:48:53
  TRACK 36 AUDIO
    TITLE "13:cjc034_09008"
    INDEX 01 00:49:08
  TRACK 37 AUDIO
    TITLE "0:"
    INDEX 01 00:51:62
  TRACK 38 AUDIO
    TITLE "14:cjc034_09009"
    INDEX 01 00:52:18
  TRACK 39 AUDIO
    TITLE "0:"
    INDEX 01 00:53:19
  TRACK 40 AUDIO
    TITLE "15:cjc034_09010"
    INDEX 01 00:53:55
  TRACK 41 AUDIO
    TITLE "0:"
    INDEX 01 00:57:70
  TRACK 42 AUDIO
    TITLE "16:cjc034_09011"
    INDEX 01 00:59:28
  TRACK 43 AUDIO
    TITLE "0:"
    INDEX 01 01:08:62
  TRACK 44 AUDIO
    TITLE "12:cjc034_09012"
    INDEX 01 01:09:67
  TRACK 45 AUDIO
    TITLE "0:"
    INDEX 01 01:11:05
  TRACK 46 AUDIO
    TITLE "13:cjc034_09013"
    INDEX 01 01:11:37
  TRACK 47 AUDIO
    TITLE "0:"
    INDEX 01 01:14:23
  TRACK 48 AUDIO
    TITLE "14:cjc034_09014"
    INDEX 01 01:14:53
  TRACK 49 AUDIO
    TITLE "0:"
    INDEX 01 01:15:62
  TRACK 50 AUDIO
    TITLE "15:cjc034_09015"
    INDEX 01 01:16:22
  TRACK 51 AUDIO
    TITLE "0:"
    INDEX 01 01:20:28
  TRACK 52 AUDIO
    TITLE "12:cjc034_09016"
    INDEX 01 01:21:63
  TRACK 53 AUDIO
    TITLE "0:"
    INDEX 01 01:22:70
  TRACK 54 AUDIO
    TITLE "13:cjc034_09017"
    INDEX 01 01:23:26
  TRACK 55 AUDIO
    TITLE "0:"
    INDEX 01 01:24:43
  TRACK 56 AUDIO
    TITLE "14:cjc034_09018"
    INDEX 01 01:25:02
  TRACK 57 AUDIO
    TITLE "0:"
    INDEX 01 01:26:07
  TRACK 58 AUDIO
    TITLE "15:cjc034_09019"
    INDEX 01 01:26:40
  TRACK 59 AUDIO
    TITLE "0:"
    INDEX 01 01:30:17
